<mxfile modified="2022-06-15T05:09:38.551Z" host="app.diagrams.net" agent="5.0 (Windows NT 10.0; Win64; x64) AppleWebKit/537.36 (KHTML, like Gecko) Chrome/102.0.5005.63 Safari/537.36 Edg/102.0.1245.33" etag="O7nY_xjBLsiVU15p0Ntc" version="18.1.3" type="github">
  <diagram id="Ht1M8jgEwFfnCIfOTk4-" name="Page-1">
    <mxGraphModel dx="1022" dy="426" grid="1" gridSize="10" guides="1" tooltips="1" connect="1" arrows="1" fold="1" page="1" pageScale="1" pageWidth="1169" pageHeight="827" math="0" shadow="0">
      <root>
        <mxCell id="0" />
        <mxCell id="1" parent="0" />
        <mxCell id="HbvPqLadg1i_rSj2PFfl-9" value="Tableau Dashboard" style="aspect=fixed;html=1;points=[];align=center;image;fontSize=12;image=img/lib/azure2/general/Dashboard.svg;" parent="1" vertex="1">
          <mxGeometry x="1100" y="207" width="58" height="40.94" as="geometry" />
        </mxCell>
        <mxCell id="X55CCtNxc5VpY9KdElDh-2" value="公司应用服务" style="image;html=1;image=img/lib/clip_art/networking/Cloud_Server_128x128.png" vertex="1" parent="1">
          <mxGeometry x="482" y="400" width="100" height="80" as="geometry" />
        </mxCell>
        <mxCell id="X55CCtNxc5VpY9KdElDh-3" value="互联网" style="aspect=fixed;perimeter=ellipsePerimeter;html=1;align=center;shadow=0;dashed=0;spacingTop=3;image;image=img/lib/active_directory/internet_cloud.svg;" vertex="1" parent="1">
          <mxGeometry x="286" y="500" width="50" height="31.5" as="geometry" />
        </mxCell>
        <mxCell id="X55CCtNxc5VpY9KdElDh-5" value="公司应用服务器" style="image;html=1;image=img/lib/clip_art/computers/Server_128x128.png" vertex="1" parent="1">
          <mxGeometry x="130.5" y="420" width="105" height="60" as="geometry" />
        </mxCell>
        <mxCell id="X55CCtNxc5VpY9KdElDh-6" value="客户端" style="fontColor=#0066CC;verticalAlign=top;verticalLabelPosition=bottom;labelPosition=center;align=center;html=1;outlineConnect=0;fillColor=#CCCCCC;strokeColor=#6881B3;gradientColor=none;gradientDirection=north;strokeWidth=2;shape=mxgraph.networks.pc;" vertex="1" parent="1">
          <mxGeometry x="130" y="570" width="100" height="70" as="geometry" />
        </mxCell>
        <mxCell id="X55CCtNxc5VpY9KdElDh-17" value="" style="endArrow=classic;startArrow=classic;html=1;rounded=0;" edge="1" parent="1" source="X55CCtNxc5VpY9KdElDh-6" target="X55CCtNxc5VpY9KdElDh-5">
          <mxGeometry width="100" height="100" relative="1" as="geometry">
            <mxPoint x="186" y="590" as="sourcePoint" />
            <mxPoint x="186" y="510" as="targetPoint" />
          </mxGeometry>
        </mxCell>
        <mxCell id="X55CCtNxc5VpY9KdElDh-18" value="" style="endArrow=classic;startArrow=classic;html=1;rounded=0;exitX=1;exitY=0.75;exitDx=0;exitDy=0;" edge="1" parent="1" source="X55CCtNxc5VpY9KdElDh-5" target="X55CCtNxc5VpY9KdElDh-3">
          <mxGeometry width="100" height="100" relative="1" as="geometry">
            <mxPoint x="236" y="442" as="sourcePoint" />
            <mxPoint x="276" y="500" as="targetPoint" />
            <Array as="points" />
          </mxGeometry>
        </mxCell>
        <mxCell id="X55CCtNxc5VpY9KdElDh-19" value="" style="endArrow=classic;startArrow=classic;html=1;rounded=0;entryX=0;entryY=1;entryDx=0;entryDy=0;" edge="1" parent="1" source="X55CCtNxc5VpY9KdElDh-6" target="X55CCtNxc5VpY9KdElDh-3">
          <mxGeometry width="100" height="100" relative="1" as="geometry">
            <mxPoint x="191" y="600" as="sourcePoint" />
            <mxPoint x="192.57142857142867" y="490" as="targetPoint" />
          </mxGeometry>
        </mxCell>
        <mxCell id="X55CCtNxc5VpY9KdElDh-20" value="互联网" style="aspect=fixed;perimeter=ellipsePerimeter;html=1;align=center;shadow=0;dashed=0;spacingTop=3;image;image=img/lib/active_directory/internet_cloud.svg;" vertex="1" parent="1">
          <mxGeometry x="630" y="500" width="50" height="31.5" as="geometry" />
        </mxCell>
        <mxCell id="X55CCtNxc5VpY9KdElDh-21" value="客户端" style="fontColor=#0066CC;verticalAlign=top;verticalLabelPosition=bottom;labelPosition=center;align=center;html=1;outlineConnect=0;fillColor=#CCCCCC;strokeColor=#6881B3;gradientColor=none;gradientDirection=north;strokeWidth=2;shape=mxgraph.networks.pc;" vertex="1" parent="1">
          <mxGeometry x="487" y="570" width="100" height="70" as="geometry" />
        </mxCell>
        <mxCell id="X55CCtNxc5VpY9KdElDh-23" value="" style="endArrow=classic;startArrow=classic;html=1;rounded=0;" edge="1" parent="1" source="X55CCtNxc5VpY9KdElDh-2" target="X55CCtNxc5VpY9KdElDh-20">
          <mxGeometry width="100" height="100" relative="1" as="geometry">
            <mxPoint x="567" y="450.7" as="sourcePoint" />
            <mxPoint x="625.3290769310024" y="490.0027179540015" as="targetPoint" />
            <Array as="points" />
          </mxGeometry>
        </mxCell>
        <mxCell id="X55CCtNxc5VpY9KdElDh-24" value="" style="endArrow=classic;startArrow=classic;html=1;rounded=0;exitX=0;exitY=1;exitDx=0;exitDy=0;" edge="1" parent="1" source="X55CCtNxc5VpY9KdElDh-20" target="X55CCtNxc5VpY9KdElDh-21">
          <mxGeometry width="100" height="100" relative="1" as="geometry">
            <mxPoint x="519.94" y="510.0020824478611" as="sourcePoint" />
            <mxPoint x="582.0027386657441" y="546.0631184610062" as="targetPoint" />
            <Array as="points" />
          </mxGeometry>
        </mxCell>
      </root>
    </mxGraphModel>
  </diagram>
</mxfile>
